HIERARCHY
ROOT Hips
{
	OFFSET 0.00000 0.00000 0.00000
	CHANNELS 6 Xposition Yposition Zposition Zrotation Yrotation Xrotation 
	JOINT LHipJoint
	{
		OFFSET 0 0 0
		CHANNELS 3 Zrotation Yrotation Xrotation
		JOINT LeftHip
		{
			OFFSET 1.54859 -1.61379 0.86856
			CHANNELS 3 Zrotation Yrotation Xrotation
			JOINT LeftKnee
			{
				OFFSET 2.25087 -6.18423 0.00000
				CHANNELS 3 Zrotation Yrotation Xrotation
				JOINT LeftAnkle
				{
					OFFSET 2.40328 -6.60297 0.00000
					CHANNELS 3 Zrotation Yrotation Xrotation
					JOINT LeftToe
					{
						OFFSET 0.17435 -0.47901 2.02453
						CHANNELS 3 Zrotation Yrotation Xrotation
						End Site
						{
							OFFSET 0.00000 -0.00000 1.04844
						}
					}
				}
			}
		}
	}
	JOINT RHipJoint
	{
		OFFSET 0 0 0
		CHANNELS 3 Zrotation Yrotation Xrotation
		JOINT RightHip
		{
			OFFSET -1.54669 -1.61379 0.86856
			CHANNELS 3 Zrotation Yrotation Xrotation
			JOINT RightKnee
			{
				OFFSET -2.28132 -6.26789 0.00000
				CHANNELS 3 Zrotation Yrotation Xrotation
				JOINT RightAnkle
				{
					OFFSET -2.51636 -6.91365 0.00000
					CHANNELS 3 Zrotation Yrotation Xrotation
					JOINT RightToe
					{
						OFFSET -0.15124 -0.41552 2.21090
						CHANNELS 3 Zrotation Yrotation Xrotation
						End Site
						{
							OFFSET -0.00000 -0.00000 1.13399
						}
					}
				}
			}
		}
	}
	JOINT lowerback
	{
		OFFSET 0 0 0
		CHANNELS 3 Zrotation Yrotation Xrotation
		JOINT Chest
		{
			OFFSET -0.04287 2.26161 -0.25690
			CHANNELS 3 Zrotation Yrotation Xrotation
			JOINT Chest2
			{
				OFFSET 0.02248 2.28395 -0.10140
				CHANNELS 3 Zrotation Yrotation Xrotation
				JOINT lowerneck
				{
					OFFSET 0 0 0
					CHANNELS 3 Zrotation Yrotation Xrotation
					JOINT Neck
					{
						OFFSET -0.11644 1.38496 0.11345
						CHANNELS 3 Zrotation Yrotation Xrotation
						JOINT Head
						{
							OFFSET 0.29383 1.36600 0.06642
							CHANNELS 3 Zrotation Yrotation Xrotation
							End Site
							{
								OFFSET 0.11075 1.41395 -0.00294
							}
						}
					}
				}
				JOINT LeftCollar
				{
					OFFSET 0 0 0
					CHANNELS 3 Zrotation Yrotation Xrotation
					JOINT LeftShoulder
					{
						OFFSET 3.51628 0.59542 -0.30346
CHANNELS 3 Zrotation Xrotation Yrotation
						JOINT LeftElbow
						{
OFFSET 0 -4.764050 0.000000
CHANNELS 3 Zrotation Xrotation Yrotation
							JOINT LeftWrist
							{
OFFSET 0 -3.137590 -0.000000
CHANNELS 3 Zrotation Xrotation Yrotation
								JOINT lhand
								{
									OFFSET 0 0 0
CHANNELS 3 Zrotation Xrotation Yrotation
									JOINT LFingers
									{
OFFSET 0 -0.732260 -0.000000
CHANNELS 3 Zrotation Xrotation Yrotation
										End Site
										{
OFFSET 0 -0.590370 -0.000000
										}
									}
								}
								JOINT LThumb
								{
OFFSET 0 0.000000 0.000000
CHANNELS 3 Zrotation Xrotation Yrotation
									End Site
									{
OFFSET 0 -0.599380 0.599380
									}
								}
							}
						}
					}
				}
				JOINT RightCollar
				{
					OFFSET 0 0 0
					CHANNELS 3 Zrotation Yrotation Xrotation
					JOINT RightShoulder
					{
						OFFSET -3.30990 0.84213 -0.36430
CHANNELS 3 Zrotation Xrotation Yrotation
						JOINT RightElbow
						{
OFFSET 0 -5.101610 -0.000000
CHANNELS 3 Zrotation Xrotation Yrotation
							JOINT RightWrist
							{
OFFSET 0 -3.232670 -0.000000
CHANNELS 3 Zrotation Xrotation Yrotation
								JOINT rhand
								{
									OFFSET 0 0 0
CHANNELS 3 Zrotation Xrotation Yrotation
									JOINT RFingers
									{
OFFSET 0 -0.702000 -0.000000
CHANNELS 3 Zrotation Xrotation Yrotation
										End Site
										{
OFFSET 0 -0.565970 -0.000000
										}
									}
								}
								JOINT RThumb
								{
OFFSET 0 0.000000 0.000000
CHANNELS 3 Zrotation Xrotation Yrotation
									End Site
									{
OFFSET 0 -0.574610 0.574610
									}
								}
							}
						}
					}
				}
			}
		}
	}
}
MOTION
Frames: 10
Frame Time: 0.008333333333333333
-36.676600 15.774700 -14.419400 -4.475900 70.914700 1.250000 0.000000 0.000000 0.000000 -14.104200 -1.157400 -11.146800 2.774700 10.321100 30.023000 0.574800 -9.771400 -14.185300 0.218200 3.007000 8.298300 0.000000 0.000000 0.000000 23.757700 9.233900 -11.539300 -3.892600 -12.016100 35.788800 -2.095000 -8.574400 -31.506800 -0.047300 -1.404100 3.861400 -0.829500 1.473500 -5.904700 0.376500 2.037800 3.550000 1.100900 0.958600 6.981800 -11.477900 -4.234300 -14.328900 14.156500 -6.345900 23.102700 6.261800 -2.235600 10.596700 0.000000 -0.000000 0.000000 -6.486900 1.111400 -45.930600 30.339800 -41.182800 11.632700 21.765800 0.911800 -20.843500 0.000000 0.000000 0.000000 -7.125000 0.000000 0.000000 -7.001100 52.138200 1.235300 0.000000 -0.000000 0.000000 -1.512700 7.622700 54.153500 -106.354000 -58.964900 -74.113800 -30.739800 -54.737900 -29.348200 0.000000 0.000000 0.000000 7.125000 0.000000 -0.000000 0.073400 -3.212900 0.077400
-36.675686 15.774091 -14.418740 -4.531929 70.879428 1.208333 0.000000 0.000000 0.000000 -14.080550 -1.193180 -11.146191 2.776324 10.323841 30.031983 0.590228 -9.745669 -14.334813 0.183588 2.747661 7.577734 0.000000 0.000000 0.000000 23.771809 9.277089 -11.509458 -3.887931 -12.009756 35.766368 -2.031003 -8.646822 -31.160270 -0.045727 -1.380450 3.796337 -0.852947 1.454570 -5.903736 0.441462 2.010293 3.542743 1.178549 0.942410 6.971142 -11.655529 -4.417715 -13.798397 14.468265 -6.658984 22.785352 6.354776 -2.383540 10.445461 0.000000 0.000000 0.000000 -6.532525 1.260203 -45.861731 30.500377 -41.318001 11.738719 21.782396 0.846280 -20.926834 0.000000 0.000000 0.000000 -7.125000 0.000000 0.000000 -7.011403 52.227979 1.252606 0.000000 0.000000 0.000000 -1.599485 7.675938 54.188062 -106.434999 -58.954344 -74.183177 -30.634339 -54.624877 -29.308056 0.000000 0.000000 0.000000 7.125000 0.000000 0.000000 0.126131 -3.141138 0.132770
-36.674773 15.773477 -14.418109 -4.579985 70.844975 1.173701 0.000000 0.000000 0.000000 -14.060012 -1.228164 -11.144972 2.777877 10.326462 30.040575 0.605523 -9.721047 -14.483210 0.149205 2.488695 6.858279 0.000000 0.000000 0.000000 23.782932 9.319983 -11.479839 -3.883592 -12.003860 35.745523 -1.967040 -8.717776 -30.812725 -0.044437 -1.360857 3.742448 -0.878340 1.435826 -5.902635 0.505029 1.983303 3.535915 1.255897 0.926415 6.960836 -11.819130 -4.610635 -13.305667 14.758436 -6.983530 22.500542 6.436607 -2.535933 10.314042 0.000000 0.000000 0.000000 -6.579070 1.406720 -45.790786 30.656078 -41.449099 11.841519 21.798172 0.782816 -21.007119 0.000000 0.000000 0.000000 -7.125000 0.000000 0.000000 -7.021540 52.314436 1.269311 0.000000 0.000000 0.000000 -1.684693 7.728754 54.220709 -106.515398 -58.943864 -74.252040 -30.523050 -54.507965 -29.269249 0.000000 0.000000 0.000000 7.125000 0.000000 0.000000 0.182463 -3.069261 0.191914
-36.673859 15.772716 -14.418414 -4.366677 70.837362 1.369652 0.000000 0.000000 0.000000 -14.141467 -1.237097 -11.123758 2.777116 10.325194 30.036363 0.616435 -9.732771 -14.595015 0.122358 2.241942 6.175269 0.000000 0.000000 0.000000 23.696198 9.353174 -11.457508 -3.890088 -12.012640 35.776684 -1.904210 -8.740614 -30.431888 -0.052456 -1.474235 4.054822 -0.967510 1.423189 -5.897052 0.522893 1.973254 3.543172 1.323345 0.916772 6.962054 -11.522895 -5.115102 -14.051051 14.340804 -7.683745 23.282212 6.153111 -2.834300 10.832263 0.000000 0.000000 0.000000 -6.655755 1.478330 -45.651829 30.651967 -41.445699 11.838778 21.787109 0.786724 -20.987478 0.000000 0.000000 0.000000 -7.125000 0.000000 0.000000 -7.026260 52.292004 1.266317 0.000000 0.000000 0.000000 -1.718240 7.767731 54.190614 -106.576148 -58.935896 -74.304060 -30.220724 -54.263598 -29.274273 0.000000 0.000000 0.000000 7.125000 0.000000 0.000000 0.356844 -2.993642 0.374770
-36.672940 15.771856 -14.418667 -4.164344 70.829960 1.555773 0.000000 0.000000 0.000000 -14.218830 -1.245082 -11.104326 2.776457 10.324099 30.032725 0.627370 -9.743049 -14.706649 0.096655 2.005016 5.519487 0.000000 0.000000 0.000000 23.613085 9.376362 -11.440331 -3.896537 -12.021357 35.807620 -1.845148 -8.763260 -30.074664 -0.059089 -1.566822 4.309917 -1.053933 1.410275 -5.893158 0.542456 1.962532 3.552152 1.391046 0.906850 6.966145 -11.253516 -5.582010 -14.746155 13.950436 -8.329014 24.002374 5.890406 -3.110048 11.311266 0.000000 0.000000 0.000000 -6.737940 1.534191 -45.496008 30.651811 -41.445601 11.838661 21.775588 0.793273 -20.968162 0.000000 0.000000 0.000000 -7.125000 0.000000 0.000000 -7.031547 52.269827 1.263467 0.000000 0.000000 0.000000 -1.756348 7.800740 54.165542 -106.636203 -58.928015 -74.355485 -29.930419 -54.030629 -29.275409 0.000000 0.000000 0.000000 7.125000 0.000000 0.000000 0.523614 -2.917112 0.549595
-36.671925 15.769420 -14.418109 -4.136380 70.825899 1.585716 0.000000 0.000000 0.000000 -14.231163 -1.238028 -11.113207 2.777421 10.325774 30.038206 0.638688 -9.730361 -14.815561 0.089144 1.924220 5.296334 0.000000 0.000000 0.000000 23.587507 9.240602 -11.505039 -3.902221 -12.029071 35.834975 -1.845960 -8.782850 -30.092630 -0.043712 -1.329052 3.654922 -1.096717 1.392969 -5.916098 0.588994 1.941115 3.588489 1.462758 0.892487 7.015881 -11.410844 -5.452138 -14.642368 13.993270 -8.101242 23.745217 5.958057 -3.026410 11.167132 0.000000 0.000000 0.000000 -6.907500 1.339814 -45.072235 30.714489 -41.497976 11.880226 21.756810 0.841791 -20.954002 0.000000 0.000000 0.000000 -7.125000 0.000000 0.000000 -7.045859 52.251709 1.262909 0.000000 0.000000 0.000000 -1.866935 7.738925 54.220303 -106.685229 -58.921519 -74.397456 -29.831099 -53.978761 -29.214761 0.000000 0.000000 0.000000 7.125000 0.000000 0.000000 0.569442 -2.826115 0.596793
-36.670905 15.767065 -14.417564 -4.104387 70.821492 1.619320 0.000000 0.000000 0.000000 -14.244983 -1.231298 -11.121480 2.778390 10.327453 30.043705 0.650113 -9.717497 -14.925384 0.080988 1.834274 5.047956 0.000000 0.000000 0.000000 23.560783 9.112005 -11.566632 -3.908063 -12.037002 35.863087 -1.844446 -8.802350 -30.095644 -0.029281 -1.103840 3.034548 -1.140519 1.375843 -5.937978 0.634875 1.920040 3.623610 1.534334 0.878278 7.063697 -11.556066 -5.342463 -14.554967 14.027179 -7.904130 23.513636 6.016500 -2.955451 11.039762 0.000000 0.000000 0.000000 -7.072106 1.156633 -44.662819 30.776482 -41.549757 11.921336 21.739114 0.887303 -20.941316 0.000000 0.000000 0.000000 -7.125000 0.000000 0.000000 -7.059558 52.235326 1.262540 0.000000 0.000000 0.000000 -1.975868 7.680256 54.273423 -106.734295 -58.915014 -74.439464 -29.731265 -53.924685 -29.157138 0.000000 0.000000 0.000000 7.125000 0.000000 0.000000 0.616136 -2.738237 0.644907
-36.669840 15.765542 -14.417158 -4.031051 70.813524 1.690473 0.000000 0.000000 0.000000 -14.274063 -1.227898 -11.123510 2.779405 10.329179 30.049389 0.662649 -9.702830 -15.044548 0.066220 1.650453 4.540799 0.000000 0.000000 0.000000 23.522314 9.056889 -11.596271 -3.915523 -12.047152 35.898968 -1.819071 -8.820925 -29.945268 -0.024561 -1.007464 2.769373 -1.194772 1.360567 -5.948991 0.674005 1.902480 3.646245 1.604523 0.865641 7.091813 -11.577077 -5.440007 -14.635661 13.969526 -8.021569 23.544442 5.980466 -3.014576 11.084372 0.000000 0.000000 0.000000 -7.185890 1.088322 -44.400688 30.831445 -41.595433 11.957776 21.732516 0.901970 -20.943752 0.000000 0.000000 0.000000 -7.125000 0.000000 0.000000 -7.066968 52.236747 1.264113 0.000000 0.000000 0.000000 -2.067829 7.653865 54.309710 -106.783777 -58.908416 -74.481841 -29.626159 -53.847949 -29.130544 0.000000 0.000000 0.000000 7.125000 0.000000 0.000000 0.671708 -2.682360 0.702408
-36.668774 15.764014 -14.416728 -3.956982 70.805761 1.762257 0.000000 0.000000 0.000000 -14.303402 -1.223578 -11.126682 2.780727 10.331421 30.056762 0.675275 -9.686937 -15.164138 0.051740 1.464883 4.028942 0.000000 0.000000 0.000000 23.483616 9.000397 -11.626505 -3.923038 -12.057356 35.935077 -1.794296 -8.838430 -29.797849 -0.019895 -0.909584 2.500081 -1.249091 1.345459 -5.960034 0.712779 1.885185 3.669229 1.674417 0.853124 7.120344 -11.599116 -5.532960 -14.716566 13.911482 -8.131741 23.572087 5.945388 -3.070613 11.126711 0.000000 0.000000 0.000000 -7.299170 1.017739 -44.138642 30.885742 -41.640544 11.993788 21.725636 0.916799 -20.946146 0.000000 0.000000 0.000000 -7.125000 0.000000 0.000000 -7.074642 52.238066 1.265716 0.000000 0.000000 0.000000 -2.160247 7.625708 54.346869 -106.831950 -58.901987 -74.523101 -29.526138 -53.774885 -29.104798 0.000000 0.000000 0.000000 7.125000 0.000000 0.000000 0.724522 -2.628731 0.757043
-36.667708 15.762440 -14.416119 -3.877455 70.799518 1.838739 0.000000 0.000000 0.000000 -14.334665 -1.212413 -11.138355 2.784330 10.337511 30.076707 0.688571 -9.661917 -15.286906 0.039407 1.266293 3.482097 0.000000 0.000000 0.000000 23.443218 8.933659 -11.661168 -3.930955 -12.067963 35.972887 -1.773995 -8.847971 -29.672443 -0.015632 -0.800520 2.200141 -1.303902 1.331604 -5.971301 0.748914 1.869858 3.694808 1.742120 0.841502 7.151962 -11.628805 -5.591730 -14.799037 13.850530 -8.187821 23.576198 5.917425 -3.103652 11.152137 0.000000 0.000000 0.000000 -7.408691 0.930244 -43.877223 30.935072 -41.681450 12.026625 21.716653 0.932837 -20.948227 0.000000 0.000000 0.000000 -7.125000 0.000000 0.000000 -7.084285 52.238624 1.267543 0.000000 0.000000 0.000000 -2.256065 7.584396 54.390515 -106.870368 -58.896810 -74.556038 -29.463967 -53.729158 -29.085360 0.000000 0.000000 0.000000 7.125000 0.000000 0.000000 0.756800 -2.591835 0.790335
